<svg width="90" height="90" viewBox="0 0 90 90" fill="none" xmlns="http://www.w3.org/2000/svg">
<g filter="url(#filter0_d_113_21)">
<rect x="10" y="8" width="70" height="70" rx="8" fill="white"/>
</g>
<path d="M32.0275 65.192C31.6435 65.192 31.3662 65.0427 31.1955 64.744C31.0248 64.4453 30.9395 64.1253 30.9395 63.784C30.9822 63.0587 31.1528 62.6533 31.4515 62.568C31.7502 62.4827 32.1128 62.44 32.5395 62.44C33.9048 62.44 34.8648 62.2053 35.4195 61.736C35.9742 61.224 36.3155 60.6053 36.4435 59.88C36.6142 59.112 36.6995 58.3227 36.6995 57.512V32.104C36.6995 31.2933 36.6142 30.5253 36.4435 29.8C36.3155 29.032 35.9742 28.4133 35.4195 27.944C34.8648 27.432 33.9048 27.176 32.5395 27.176C32.1128 27.176 31.7502 27.1333 31.4515 27.048C31.1528 26.9627 30.9822 26.5573 30.9395 25.832C30.9395 25.4907 31.0248 25.1707 31.1955 24.872C31.3662 24.5733 31.6435 24.424 32.0275 24.424C33.3928 24.4667 34.6728 24.5093 35.8675 24.552C37.1048 24.5947 38.3635 24.616 39.6435 24.616H58.1395C58.6088 24.616 58.9928 24.7227 59.2915 24.936C59.6328 25.1493 59.8035 25.5547 59.8035 26.152L59.9955 35.112C59.9955 35.5387 59.7822 35.8587 59.3555 36.072C58.9715 36.2853 58.6088 36.392 58.2675 36.392C57.7982 36.392 57.3502 36.3067 56.9235 36.136C56.5395 35.9227 56.3048 35.624 56.2195 35.24C55.9635 33.32 55.6222 31.784 55.1955 30.632C54.8115 29.4373 54.2142 28.584 53.4035 28.072C52.6355 27.5173 51.5048 27.2187 50.0115 27.176H43.0355V43.816H54.4915C54.8328 43.8587 55.0888 44.0293 55.2595 44.328C55.4302 44.6267 55.5155 44.9467 55.5155 45.288C55.5155 45.5867 55.4302 45.8853 55.2595 46.184C55.0888 46.44 54.8328 46.568 54.4915 46.568H43.0355V57.512C43.0782 58.3227 43.1635 59.112 43.2915 59.88C43.4195 60.6053 43.7608 61.224 44.3155 61.736C44.9128 62.2053 45.8728 62.44 47.1955 62.44C47.6222 62.44 47.9848 62.4827 48.2835 62.568C48.5822 62.6533 48.7528 63.0587 48.7955 63.784C48.7955 64.1253 48.7102 64.4453 48.5395 64.744C48.3688 65.0427 48.0702 65.192 47.6435 65.192C44.9128 65.064 42.2675 65 39.7075 65C38.4275 65 37.1688 65 35.9315 65C34.6942 65.0427 33.3928 65.1067 32.0275 65.192Z" fill="url(#paint0_linear_113_21)"/>
<defs>
<filter id="filter0_d_113_21" x="0" y="0" width="90" height="90" filterUnits="userSpaceOnUse" color-interpolation-filters="sRGB">
<feFlood flood-opacity="0" result="BackgroundImageFix"/>
<feColorMatrix in="SourceAlpha" type="matrix" values="0 0 0 0 0 0 0 0 0 0 0 0 0 0 0 0 0 0 127 0" result="hardAlpha"/>
<feOffset dy="2"/>
<feGaussianBlur stdDeviation="5"/>
<feComposite in2="hardAlpha" operator="out"/>
<feColorMatrix type="matrix" values="0 0 0 0 0 0 0 0 0 0 0 0 0 0 0 0 0 0 0.25 0"/>
<feBlend mode="normal" in2="BackgroundImageFix" result="effect1_dropShadow_113_21"/>
<feBlend mode="normal" in="SourceGraphic" in2="effect1_dropShadow_113_21" result="shape"/>
</filter>
<linearGradient id="paint0_linear_113_21" x1="45" y1="8" x2="45" y2="78" gradientUnits="userSpaceOnUse">
<stop stop-color="#C990AB"/>
<stop offset="1" stop-color="#4A3434"/>
</linearGradient>
</defs>
</svg>
