<svg width="100" height="100" viewBox="0 0 100 100" fill="none" xmlns="http://www.w3.org/2000/svg">
<rect width="100" height="100" rx="15" fill="url(#paint0_linear_101_3)"/>
<g filter="url(#filter0_d_101_3)">
<rect x="15" y="15" width="70" height="70" rx="8" fill="white"/>
</g>
<path d="M37.0275 72.192C36.6435 72.192 36.3662 72.0427 36.1955 71.744C36.0248 71.4453 35.9395 71.1253 35.9395 70.784C35.9822 70.0587 36.1528 69.6533 36.4515 69.568C36.7502 69.4827 37.1128 69.44 37.5395 69.44C38.9048 69.44 39.8648 69.2053 40.4195 68.736C40.9742 68.224 41.3155 67.6053 41.4435 66.88C41.6142 66.112 41.6995 65.3227 41.6995 64.512V39.104C41.6995 38.2933 41.6142 37.5253 41.4435 36.8C41.3155 36.032 40.9742 35.4133 40.4195 34.944C39.8648 34.432 38.9048 34.176 37.5395 34.176C37.1128 34.176 36.7502 34.1333 36.4515 34.048C36.1528 33.9627 35.9822 33.5573 35.9395 32.832C35.9395 32.4907 36.0248 32.1707 36.1955 31.872C36.3662 31.5733 36.6435 31.424 37.0275 31.424C38.3928 31.4667 39.6728 31.5093 40.8675 31.552C42.1048 31.5947 43.3635 31.616 44.6435 31.616H63.1395C63.6088 31.616 63.9928 31.7227 64.2915 31.936C64.6328 32.1493 64.8035 32.5547 64.8035 33.152L64.9955 42.112C64.9955 42.5387 64.7822 42.8587 64.3555 43.072C63.9715 43.2853 63.6088 43.392 63.2675 43.392C62.7982 43.392 62.3502 43.3067 61.9235 43.136C61.5395 42.9227 61.3048 42.624 61.2195 42.24C60.9635 40.32 60.6222 38.784 60.1955 37.632C59.8115 36.4373 59.2142 35.584 58.4035 35.072C57.6355 34.5173 56.5048 34.2187 55.0115 34.176H48.0355V50.816H59.4915C59.8328 50.8587 60.0888 51.0293 60.2595 51.328C60.4302 51.6267 60.5155 51.9467 60.5155 52.288C60.5155 52.5867 60.4302 52.8853 60.2595 53.184C60.0888 53.44 59.8328 53.568 59.4915 53.568H48.0355V64.512C48.0782 65.3227 48.1635 66.112 48.2915 66.88C48.4195 67.6053 48.7608 68.224 49.3155 68.736C49.9128 69.2053 50.8728 69.44 52.1955 69.44C52.6222 69.44 52.9848 69.4827 53.2835 69.568C53.5822 69.6533 53.7528 70.0587 53.7955 70.784C53.7955 71.1253 53.7102 71.4453 53.5395 71.744C53.3688 72.0427 53.0702 72.192 52.6435 72.192C49.9128 72.064 47.2675 72 44.7075 72C43.4275 72 42.1688 72 40.9315 72C39.6942 72.0427 38.3928 72.1067 37.0275 72.192Z" fill="url(#paint1_linear_101_3)"/>
<defs>
<filter id="filter0_d_101_3" x="5" y="7" width="90" height="90" filterUnits="userSpaceOnUse" color-interpolation-filters="sRGB">
<feFlood flood-opacity="0" result="BackgroundImageFix"/>
<feColorMatrix in="SourceAlpha" type="matrix" values="0 0 0 0 0 0 0 0 0 0 0 0 0 0 0 0 0 0 127 0" result="hardAlpha"/>
<feOffset dy="2"/>
<feGaussianBlur stdDeviation="5"/>
<feComposite in2="hardAlpha" operator="out"/>
<feColorMatrix type="matrix" values="0 0 0 0 0 0 0 0 0 0 0 0 0 0 0 0 0 0 0.25 0"/>
<feBlend mode="normal" in2="BackgroundImageFix" result="effect1_dropShadow_101_3"/>
<feBlend mode="normal" in="SourceGraphic" in2="effect1_dropShadow_101_3" result="shape"/>
</filter>
<linearGradient id="paint0_linear_101_3" x1="50" y1="0" x2="50" y2="100" gradientUnits="userSpaceOnUse">
<stop stop-color="#2C8CC0"/>
<stop offset="1" stop-color="white"/>
</linearGradient>
<linearGradient id="paint1_linear_101_3" x1="50" y1="15" x2="50" y2="85" gradientUnits="userSpaceOnUse">
<stop stop-color="#2689BF"/>
<stop offset="1" stop-color="#DBE9F0"/>
</linearGradient>
</defs>
</svg>
